<svg width="200" height="200" viewBox="0 0 200 200" fill="none" xmlns="http://www.w3.org/2000/svg">
<rect width="200" height="200" fill="white"/>
<rect width="200" height="200" fill="#DCC7E7"/>
<g filter="url(#filter0_d)">
<path d="M28 47C28 41.4772 32.4772 37 38 37H162C167.523 37 172 41.4772 172 47V116.25C172 121.773 167.523 126.25 162 126.25H126.199C123.367 126.25 120.667 127.451 118.771 129.555L88.928 162.665C82.7944 169.469 71.5 165.131 71.5 155.969V136.25C71.5 130.727 67.0228 126.25 61.5 126.25H38C32.4772 126.25 28 121.773 28 116.25V47Z" fill="white"/>
<path d="M38 38H162C166.971 38 171 42.0294 171 47V116.25C171 121.221 166.971 125.25 162 125.25H126.199C123.084 125.25 120.114 126.571 118.028 128.885L88.1852 161.995C82.6649 168.119 72.5 164.214 72.5 155.969V136.25C72.5 130.175 67.5751 125.25 61.5 125.25H38C33.0294 125.25 29 121.221 29 116.25V47C29 42.0294 33.0294 38 38 38Z" stroke="black" stroke-width="2"/>
</g>
<path d="M89.0096 89C88.2896 89.72 87.3776 90.08 86.2736 90.08C85.1696 90.08 84.2576 89.72 83.5376 89C82.8176 88.232 82.4576 87.296 82.4576 86.192C82.4576 85.088 82.8176 84.176 83.5376 83.456C84.2576 82.736 85.1696 82.376 86.2736 82.376C87.3776 82.376 88.2896 82.736 89.0096 83.456C89.7296 84.176 90.0896 85.088 90.0896 86.192C90.0896 87.296 89.7296 88.232 89.0096 89ZM102.721 89C102.001 89.72 101.089 90.08 99.9845 90.08C98.8805 90.08 97.9685 89.72 97.2485 89C96.5285 88.232 96.1685 87.296 96.1685 86.192C96.1685 85.088 96.5285 84.176 97.2485 83.456C97.9685 82.736 98.8805 82.376 99.9845 82.376C101.089 82.376 102.001 82.736 102.721 83.456C103.441 84.176 103.801 85.088 103.801 86.192C103.801 87.296 103.441 88.232 102.721 89ZM116.431 89C115.711 89.72 114.799 90.08 113.695 90.08C112.591 90.08 111.679 89.72 110.959 89C110.239 88.232 109.879 87.296 109.879 86.192C109.879 85.088 110.239 84.176 110.959 83.456C111.679 82.736 112.591 82.376 113.695 82.376C114.799 82.376 115.711 82.736 116.431 83.456C117.151 84.176 117.511 85.088 117.511 86.192C117.511 87.296 117.151 88.232 116.431 89Z" fill="black"/>
<defs>
<filter id="filter0_d" x="24" y="37" width="152" height="136.989" filterUnits="userSpaceOnUse" color-interpolation-filters="sRGB">
<feFlood flood-opacity="0" result="BackgroundImageFix"/>
<feColorMatrix in="SourceAlpha" type="matrix" values="0 0 0 0 0 0 0 0 0 0 0 0 0 0 0 0 0 0 127 0" result="hardAlpha"/>
<feOffset dy="4"/>
<feGaussianBlur stdDeviation="2"/>
<feComposite in2="hardAlpha" operator="out"/>
<feColorMatrix type="matrix" values="0 0 0 0 0 0 0 0 0 0 0 0 0 0 0 0 0 0 0.25 0"/>
<feBlend mode="normal" in2="BackgroundImageFix" result="effect1_dropShadow"/>
<feBlend mode="normal" in="SourceGraphic" in2="effect1_dropShadow" result="shape"/>
</filter>
</defs>
</svg>
