<svg width="200" height="200" viewBox="0 0 200 200" fill="none" xmlns="http://www.w3.org/2000/svg">
<rect width="200" height="200" fill="#B6DDF3"/>
<g filter="url(#filter0_d)">
<path d="M138.664 68.76C141.16 73.848 142.408 79.512 142.408 85.752C142.408 91.992 141.16 97.656 138.664 102.744C136.168 107.736 132.952 111.72 129.016 114.696C121.048 120.84 112.792 123.912 104.248 123.912H86.248V140.184C86.248 142.392 86.152 144.072 85.96 145.224C85.864 146.28 85.432 147.528 84.664 148.968C83.32 151.56 79.576 152.856 73.432 152.856C66.712 152.856 62.776 151.08 61.624 147.528C61.048 145.896 60.76 143.4 60.76 140.04V60.12C60.76 57.912 60.808 56.28 60.904 55.224C61.096 54.072 61.576 52.776 62.344 51.336C63.688 48.744 67.432 47.448 73.576 47.448H104.392C112.84 47.448 121.048 50.52 129.016 56.664C132.952 59.64 136.168 63.672 138.664 68.76ZM104.392 98.424C107.272 98.424 110.104 97.368 112.888 95.256C115.672 93.144 117.064 89.976 117.064 85.752C117.064 81.528 115.672 78.36 112.888 76.248C110.104 74.04 107.224 72.936 104.248 72.936H86.248V98.424H104.392Z" fill="white"/>
<path d="M138.664 68.76L140.46 67.8791L140.46 67.8791L138.664 68.76ZM138.664 102.744L140.453 103.638L140.456 103.632L140.46 103.625L138.664 102.744ZM129.016 114.696L127.81 113.101L127.802 113.106L127.795 113.112L129.016 114.696ZM86.248 123.912V121.912H84.248V123.912H86.248ZM85.96 145.224L83.9872 144.895L83.975 144.969L83.9682 145.043L85.96 145.224ZM84.664 148.968L82.8993 148.027L82.8938 148.037L82.8885 148.047L84.664 148.968ZM61.624 147.528L63.5264 146.911L63.5185 146.887L63.51 146.862L61.624 147.528ZM60.904 55.224L58.9312 54.8952L58.919 54.9687L58.9122 55.0429L60.904 55.224ZM62.344 51.336L64.1087 52.2772L64.1142 52.2669L64.1195 52.2566L62.344 51.336ZM129.016 56.664L127.795 58.2478L127.802 58.2536L127.81 58.2593L129.016 56.664ZM112.888 95.256L111.679 93.6626L111.679 93.6626L112.888 95.256ZM112.888 76.248L111.645 77.815L111.662 77.8284L111.679 77.8414L112.888 76.248ZM86.248 72.936V70.936H84.248V72.936H86.248ZM86.248 98.424H84.248V100.424H86.248V98.424ZM136.868 69.6408C139.217 74.4279 140.408 79.7861 140.408 85.752H144.408C144.408 79.2379 143.103 73.2681 140.46 67.8791L136.868 69.6408ZM140.408 85.752C140.408 91.7179 139.217 97.0761 136.868 101.863L140.46 103.625C143.103 98.2359 144.408 92.2661 144.408 85.752H140.408ZM136.875 101.85C134.499 106.603 131.47 110.333 127.81 113.101L130.222 116.291C134.434 113.107 137.837 108.869 140.453 103.638L136.875 101.85ZM127.795 113.112C120.112 119.036 112.275 121.912 104.248 121.912V125.912C113.309 125.912 121.984 122.644 130.237 116.28L127.795 113.112ZM104.248 121.912H86.248V125.912H104.248V121.912ZM84.248 123.912V140.184H88.248V123.912H84.248ZM84.248 140.184C84.248 142.361 84.1516 143.909 83.9872 144.895L87.9328 145.553C88.1524 144.235 88.248 142.423 88.248 140.184H84.248ZM83.9682 145.043C83.9058 145.729 83.6024 146.709 82.8993 148.027L86.4287 149.909C87.2616 148.347 87.8222 146.831 87.9518 145.405L83.9682 145.043ZM82.8885 148.047C82.526 148.746 81.7577 149.453 80.1938 149.994C78.6149 150.541 76.39 150.856 73.432 150.856V154.856C76.618 154.856 79.3371 154.523 81.5022 153.774C83.6823 153.019 85.458 151.782 86.4395 149.889L82.8885 148.047ZM73.432 150.856C66.8139 150.856 64.2335 149.091 63.5264 146.911L59.7216 148.145C61.3185 153.069 66.6101 154.856 73.432 154.856V150.856ZM63.51 146.862C63.0509 145.562 62.76 143.345 62.76 140.04H58.76C58.76 143.455 59.0451 146.23 59.738 148.194L63.51 146.862ZM62.76 140.04V60.12H58.76V140.04H62.76ZM62.76 60.12C62.76 57.9225 62.8084 56.366 62.8958 55.4051L58.9122 55.0429C58.8076 56.194 58.76 57.9015 58.76 60.12H62.76ZM62.8768 55.5528C63.022 54.6812 63.4054 53.5958 64.1087 52.2772L60.5793 50.3948C59.7466 51.9562 59.17 53.4628 58.9312 54.8952L62.8768 55.5528ZM64.1195 52.2566C64.482 51.5575 65.2503 50.8513 66.8142 50.31C68.3931 49.7634 70.618 49.448 73.576 49.448V45.448C70.39 45.448 67.6709 45.7805 65.5058 46.53C63.3257 47.2847 61.55 48.5225 60.5685 50.4154L64.1195 52.2566ZM73.576 49.448H104.392V45.448H73.576V49.448ZM104.392 49.448C112.318 49.448 120.108 52.3203 127.795 58.2478L130.237 55.0802C121.988 48.7196 113.362 45.448 104.392 45.448V49.448ZM127.81 58.2593C131.461 61.0203 134.49 64.792 136.868 69.6408L140.46 67.8791C137.846 62.552 134.443 58.2597 130.222 55.0687L127.81 58.2593ZM104.392 100.424C107.795 100.424 111.041 99.1674 114.097 96.8494L111.679 93.6626C109.167 95.5686 106.749 96.424 104.392 96.424V100.424ZM114.097 96.8494C117.485 94.2789 119.064 90.4555 119.064 85.752H115.064C115.064 89.4965 113.859 92.0091 111.679 93.6626L114.097 96.8494ZM119.064 85.752C119.064 81.0485 117.485 77.2251 114.097 74.6546L111.679 77.8414C113.859 79.4949 115.064 82.0075 115.064 85.752H119.064ZM114.131 74.681C111.064 72.249 107.758 70.936 104.248 70.936V74.936C106.69 74.936 109.144 75.831 111.645 77.815L114.131 74.681ZM104.248 70.936H86.248V74.936H104.248V70.936ZM84.248 72.936V98.424H88.248V72.936H84.248ZM86.248 100.424H104.392V96.424H86.248V100.424Z" fill="black"/>
</g>
<defs>
<filter id="filter0_d" x="54.76" y="45.448" width="93.648" height="117.408" filterUnits="userSpaceOnUse" color-interpolation-filters="sRGB">
<feFlood flood-opacity="0" result="BackgroundImageFix"/>
<feColorMatrix in="SourceAlpha" type="matrix" values="0 0 0 0 0 0 0 0 0 0 0 0 0 0 0 0 0 0 127 0" result="hardAlpha"/>
<feOffset dy="4"/>
<feGaussianBlur stdDeviation="2"/>
<feComposite in2="hardAlpha" operator="out"/>
<feColorMatrix type="matrix" values="0 0 0 0 0 0 0 0 0 0 0 0 0 0 0 0 0 0 0.25 0"/>
<feBlend mode="normal" in2="BackgroundImageFix" result="effect1_dropShadow"/>
<feBlend mode="normal" in="SourceGraphic" in2="effect1_dropShadow" result="shape"/>
</filter>
</defs>
</svg>
