<svg width="200" height="200" viewBox="0 0 200 200" fill="none" xmlns="http://www.w3.org/2000/svg">
<rect width="200" height="200" fill="white"/>
<rect width="200" height="200" fill="#DCC7E7"/>
<g filter="url(#filter0_d)">
<path d="M138.17 104.875C138.375 103.275 138.529 101.65 138.529 100C138.529 98.35 138.375 96.725 138.17 95.125L149.038 86.85C150.015 86.1 150.297 84.75 149.655 83.65L139.377 66.325C138.735 65.25 137.399 64.8 136.242 65.25L123.446 70.275C120.8 68.3 117.896 66.625 114.762 65.35L112.835 52.1C112.603 50.925 111.55 50 110.265 50H89.7093C88.4245 50 87.371 50.925 87.1655 52.1L85.2384 65.35C82.1036 66.625 79.2001 68.275 76.5536 70.275L63.7576 65.25C62.6013 64.825 61.2652 65.25 60.6228 66.325L50.3449 83.65C49.7026 84.725 49.9852 86.075 50.9616 86.85L61.8048 95.125C61.5992 96.725 61.4451 98.35 61.4451 100C61.4451 101.65 61.5992 103.275 61.8048 104.875L50.9616 113.15C49.9852 113.9 49.7026 115.25 50.3449 116.35L60.6228 133.675C61.2652 134.75 62.6013 135.2 63.7576 134.75L76.5536 129.725C79.2001 131.7 82.1036 133.375 85.2384 134.65L87.1655 147.9C87.371 149.075 88.4245 150 89.7093 150H110.265C111.55 150 112.603 149.075 112.809 147.9L114.736 134.65C117.871 133.375 120.774 131.725 123.421 129.725L136.217 134.75C137.373 135.175 138.709 134.75 139.351 133.675L149.629 116.35C150.272 115.275 149.989 113.925 149.013 113.15L138.17 104.875ZM99.9872 117.5C90.0433 117.5 82.0008 109.675 82.0008 100C82.0008 90.325 90.0433 82.5 99.9872 82.5C109.931 82.5 117.973 90.325 117.973 100C117.973 109.675 109.931 117.5 99.9872 117.5Z" fill="white"/>
<path d="M137.178 104.748L137.104 105.32L137.563 105.67L148.398 113.939C148.996 114.419 149.142 115.217 148.771 115.837L148.769 115.84L138.493 133.162C138.493 133.162 138.493 133.163 138.492 133.163C138.112 133.798 137.3 134.078 136.571 133.815L123.786 128.794L123.265 128.589L122.818 128.927C120.241 130.874 117.414 132.481 114.359 133.724L113.829 133.939L113.746 134.506L111.822 147.74C111.694 148.432 111.059 149 110.265 149H89.7093C88.9157 149 88.28 148.432 88.1527 147.74L86.228 134.506L86.1456 133.939L85.6151 133.724C82.5641 132.483 79.7344 130.851 77.1516 128.924L76.7058 128.591L76.188 128.794L63.3949 133.818C63.3942 133.818 63.3935 133.819 63.3928 133.819C62.6894 134.091 61.8727 133.815 61.4822 133.164C61.4819 133.163 61.4816 133.163 61.4812 133.162L51.2085 115.846C51.2079 115.845 51.2074 115.844 51.2069 115.843C50.8221 115.181 50.9921 114.388 51.5696 113.944C51.57 113.944 51.5704 113.943 51.5708 113.943L62.4115 105.67L62.8702 105.32L62.7966 104.748C62.5937 103.168 62.4451 101.59 62.4451 100C62.4451 98.4103 62.5937 96.8324 62.7966 95.2524L62.8702 94.6801L62.4115 94.33L51.5767 86.0615C50.9782 85.5815 50.8326 84.7835 51.2034 84.1629L51.205 84.1602L61.4812 66.8379C61.4815 66.8375 61.4818 66.837 61.4821 66.8365C61.8623 66.2019 62.6747 65.9222 63.4035 66.1853L76.188 71.2058L76.7095 71.4106L77.1565 71.0728C79.7329 69.1258 82.5603 67.5188 85.6151 66.2763L86.1456 66.0606L86.228 65.4939L88.1527 52.26C88.28 51.5684 88.9157 51 89.7093 51H110.265C111.051 51 111.699 51.5629 111.849 52.2717L113.772 65.4939L113.854 66.0606L114.385 66.2763C117.436 67.5173 120.266 69.149 122.848 71.0764L123.294 71.4091L123.812 71.2058L136.605 66.1819C136.605 66.1818 136.606 66.1816 136.606 66.1815C137.31 65.9081 138.128 66.1847 138.518 66.8374C138.519 66.8376 138.519 66.8378 138.519 66.8379L148.792 84.1543C148.792 84.1551 148.793 84.156 148.793 84.1568C149.178 84.8184 149.008 85.6107 148.431 86.0554C148.431 86.0559 148.43 86.0564 148.429 86.057L137.564 94.3294L137.104 94.6794L137.178 95.2524C137.381 96.8324 137.529 98.4103 137.529 100C137.529 101.59 137.381 103.168 137.178 104.748ZM81.0008 100C81.0008 110.253 89.517 118.5 99.9872 118.5C110.457 118.5 118.973 110.253 118.973 100C118.973 89.7471 110.457 81.5 99.9872 81.5C89.517 81.5 81.0008 89.7471 81.0008 100Z" stroke="black" stroke-width="2"/>
</g>
<defs>
<filter id="filter0_d" x="46" y="50" width="108" height="108" filterUnits="userSpaceOnUse" color-interpolation-filters="sRGB">
<feFlood flood-opacity="0" result="BackgroundImageFix"/>
<feColorMatrix in="SourceAlpha" type="matrix" values="0 0 0 0 0 0 0 0 0 0 0 0 0 0 0 0 0 0 127 0" result="hardAlpha"/>
<feOffset dy="4"/>
<feGaussianBlur stdDeviation="2"/>
<feComposite in2="hardAlpha" operator="out"/>
<feColorMatrix type="matrix" values="0 0 0 0 0 0 0 0 0 0 0 0 0 0 0 0 0 0 0.25 0"/>
<feBlend mode="normal" in2="BackgroundImageFix" result="effect1_dropShadow"/>
<feBlend mode="normal" in="SourceGraphic" in2="effect1_dropShadow" result="shape"/>
</filter>
</defs>
</svg>
